<svg width="2335" height="695" viewBox="0 0 2335 695" fill="none" xmlns="http://www.w3.org/2000/svg">
<path d="M535.898 241.039C535.898 244.555 535.28 248.363 534.043 252.465C532.806 256.501 530.788 260.277 527.988 263.793C525.254 267.243 521.641 270.141 517.148 272.484C512.721 274.828 507.318 276 500.938 276H455.137C451.621 276 447.812 275.382 443.711 274.145C439.674 272.908 435.898 270.922 432.383 268.188C428.932 265.388 426.035 261.775 423.691 257.348C421.348 252.855 420.176 247.419 420.176 241.039C420.176 237.523 420.794 233.715 422.031 229.613C423.268 225.512 425.254 221.736 427.988 218.285C430.788 214.77 434.401 211.84 438.828 209.496C443.32 207.152 448.757 205.98 455.137 205.98H500.938V230.199H455.137C451.686 230.199 449.017 231.273 447.129 233.422C445.241 235.505 444.297 238.109 444.297 241.234C444.297 244.555 445.371 247.159 447.52 249.047C449.733 250.87 452.337 251.781 455.332 251.781H500.938C504.388 251.781 507.057 250.74 508.945 248.656C510.833 246.573 511.777 243.969 511.777 240.844V205.395C511.777 202.074 510.736 199.438 508.652 197.484C506.634 195.531 504.062 194.555 500.938 194.555H445.176V170.434H500.938C504.453 170.434 508.229 171.052 512.266 172.289C516.367 173.526 520.143 175.544 523.594 178.344C527.109 181.078 530.039 184.691 532.383 189.184C534.727 193.611 535.898 199.014 535.898 205.395V241.039ZM649.711 195.824H592.582C589.132 195.824 586.527 196.703 584.77 198.461C583.012 200.154 582.133 202.66 582.133 205.98V276H556.742V205.98C556.742 201.618 557.296 197.712 558.402 194.262C559.509 190.811 560.974 187.784 562.797 185.18C564.685 182.51 566.833 180.264 569.242 178.441C571.651 176.553 574.158 175.023 576.762 173.852C579.431 172.68 582.1 171.833 584.77 171.312C587.504 170.727 590.043 170.434 592.387 170.434H649.711V195.824ZM760.496 276H735.105V205.98C735.105 202.66 734.227 200.154 732.469 198.461C730.711 196.703 728.107 195.824 724.656 195.824H691.648V276H666.258V183.031C666.258 181.273 666.583 179.646 667.234 178.148C667.885 176.586 668.797 175.251 669.969 174.145C671.141 172.973 672.508 172.061 674.07 171.41C675.633 170.759 677.293 170.434 679.051 170.434H724.852C728.367 170.434 732.143 171.052 736.18 172.289C740.216 173.526 744.057 175.512 747.703 178.246V170.434H782.078C784.487 170.434 787.026 170.727 789.695 171.312C792.365 171.833 795.001 172.68 797.605 173.852C800.275 175.023 802.814 176.553 805.223 178.441C807.632 180.264 809.747 182.51 811.57 185.18C813.393 187.784 814.858 190.811 815.965 194.262C817.072 197.712 817.625 201.618 817.625 205.98V276H792.234V205.98C792.234 202.66 791.388 200.154 789.695 198.461C788.068 196.703 785.529 195.824 782.078 195.824H759.227C760.073 198.949 760.496 202.335 760.496 205.98V276ZM955.656 240.355C955.656 244.717 955.103 248.656 953.996 252.172C952.889 255.622 951.424 258.682 949.602 261.352C947.779 263.956 945.663 266.202 943.254 268.09C940.845 269.913 938.306 271.41 935.637 272.582C933.033 273.754 930.363 274.633 927.629 275.219C924.96 275.74 922.421 276 920.012 276H874.211C870.695 276 866.854 275.382 862.688 274.145C858.521 272.908 854.647 270.889 851.066 268.09C847.551 265.225 844.589 261.547 842.18 257.055C839.836 252.497 838.664 246.931 838.664 240.355V205.98C838.664 199.47 839.836 193.969 842.18 189.477C844.589 184.919 847.551 181.241 851.066 178.441C854.647 175.577 858.521 173.526 862.688 172.289C866.854 171.052 870.695 170.434 874.211 170.434H920.012C926.522 170.434 932.056 171.605 936.613 173.949C941.171 176.293 944.849 179.255 947.648 182.836C950.448 186.352 952.466 190.193 953.703 194.359C955.005 198.526 955.656 202.4 955.656 205.98V240.355ZM930.266 206.176C930.266 202.66 929.387 200.056 927.629 198.363C925.871 196.671 923.332 195.824 920.012 195.824H874.406C871.021 195.824 868.449 196.703 866.691 198.461C864.934 200.154 864.055 202.66 864.055 205.98V240.355C864.055 243.676 864.934 246.215 866.691 247.973C868.449 249.73 871.021 250.609 874.406 250.609H920.012C923.462 250.609 926.034 249.73 927.727 247.973C929.419 246.215 930.266 243.676 930.266 240.355V206.176ZM1094.08 276H1068.69V217.406C1068.69 214.086 1068.1 211.124 1066.93 208.52C1065.82 205.85 1064.29 203.572 1062.34 201.684C1060.39 199.796 1058.08 198.363 1055.41 197.387C1052.8 196.345 1049.97 195.824 1046.91 195.824H1002.48V276H977.086V183.031C977.086 181.273 977.411 179.646 978.062 178.148C978.714 176.586 979.625 175.251 980.797 174.145C981.969 172.973 983.336 172.061 984.898 171.41C986.461 170.759 988.121 170.434 989.879 170.434H1047.11C1050.3 170.434 1053.65 170.792 1057.16 171.508C1060.74 172.224 1064.26 173.396 1067.71 175.023C1071.23 176.586 1074.55 178.604 1077.67 181.078C1080.86 183.487 1083.66 186.449 1086.07 189.965C1088.54 193.415 1090.5 197.419 1091.93 201.977C1093.36 206.534 1094.08 211.677 1094.08 217.406V276ZM1232.5 286.156C1232.5 290.518 1231.95 294.424 1230.84 297.875C1229.73 301.391 1228.27 304.451 1226.45 307.055C1224.62 309.724 1222.51 311.97 1220.1 313.793C1217.69 315.681 1215.15 317.211 1212.48 318.383C1209.88 319.555 1207.24 320.401 1204.57 320.922C1201.9 321.508 1199.36 321.801 1196.95 321.801H1151.15V296.41H1196.95C1200.34 296.41 1202.88 295.531 1204.57 293.773C1206.26 292.016 1207.11 289.477 1207.11 286.156V170.434H1232.5V286.156ZM1196.95 276H1151.15C1147.51 276 1143.6 275.382 1139.43 274.145C1135.33 272.908 1131.49 270.889 1127.91 268.09C1124.33 265.225 1121.37 261.547 1119.02 257.055C1116.68 252.497 1115.51 246.931 1115.51 240.355V170.434H1140.9V240.355C1140.9 243.676 1141.78 246.215 1143.54 247.973C1145.29 249.73 1147.9 250.609 1151.35 250.609H1196.95V276Z" fill="white"/>
<path d="M542.344 483.207C542.344 485.03 542.018 486.723 541.367 488.285C540.716 489.848 539.805 491.215 538.633 492.387C537.526 493.493 536.191 494.372 534.629 495.023C533.132 495.674 531.504 496 529.746 496H472.324C469.199 496 465.846 495.642 462.266 494.926C458.75 494.21 455.267 493.07 451.816 491.508C448.366 489.88 445.013 487.862 441.758 485.453C438.568 482.979 435.768 480.017 433.359 476.566C430.951 473.051 428.997 469.014 427.5 464.457C426.068 459.9 425.352 454.757 425.352 449.027V390.434H450.742V449.027C450.742 452.348 451.296 455.342 452.402 458.012C453.574 460.616 455.137 462.862 457.09 464.75C459.043 466.638 461.322 468.103 463.926 469.145C466.595 470.121 469.46 470.609 472.52 470.609H516.953V390.434H542.344V483.207ZM682.578 460.355C682.578 462.764 682.285 465.303 681.699 467.973C681.178 470.642 680.332 473.311 679.16 475.98C677.988 478.585 676.458 481.091 674.57 483.5C672.747 485.909 670.501 488.057 667.832 489.945C665.228 491.768 662.201 493.233 658.75 494.34C655.299 495.447 651.393 496 647.031 496H601.23C598.822 496 596.283 495.74 593.613 495.219C590.944 494.633 588.275 493.754 585.605 492.582C583.001 491.41 580.495 489.913 578.086 488.09C575.677 486.202 573.529 483.956 571.641 481.352C569.818 478.682 568.353 475.622 567.246 472.172C566.139 468.656 565.586 464.717 565.586 460.355V345.805H590.977V460.355C590.977 463.48 591.953 465.987 593.906 467.875C595.859 469.698 598.301 470.609 601.23 470.609H647.031C650.221 470.609 652.695 469.665 654.453 467.777C656.276 465.889 657.188 463.415 657.188 460.355V425.98C657.188 422.79 656.243 420.316 654.355 418.559C652.467 416.736 650.026 415.824 647.031 415.824H601.23V390.434H647.031C649.44 390.434 651.979 390.727 654.648 391.312C657.318 391.833 659.954 392.68 662.559 393.852C665.228 395.023 667.767 396.553 670.176 398.441C672.585 400.264 674.701 402.51 676.523 405.18C678.346 407.784 679.811 410.811 680.918 414.262C682.025 417.712 682.578 421.618 682.578 425.98V460.355Z" fill="white"/>
<path d="M103.25 295H331.5V148.5H396.5V507H331.5V360.5H103.25V507H38.25V148.5H103.25V295Z" fill="white"/>
<rect x="316" y="295" width="877" height="65" fill="white"/>
<ellipse cx="1194.25" cy="327.5" rx="38.25" ry="32.5" fill="white"/>
<rect x="1218.5" y="283" width="14" height="46" fill="white"/>
<rect x="1188" y="295" width="18" height="3" fill="white"/>
</svg>
