<svg width="496" height="149" viewBox="0 0 496 149" fill="none" xmlns="http://www.w3.org/2000/svg">
<path d="M206.685 38.4611C206.685 39.9224 206.428 41.5051 205.914 43.21C205.401 44.8874 204.563 46.4568 203.4 47.9182C202.264 49.352 200.764 50.5565 198.898 51.5303C197.059 52.5045 194.815 52.9916 192.165 52.9916H173.143C171.683 52.9916 170.101 52.7348 168.397 52.2207C166.721 51.7065 165.153 50.8811 163.693 49.7448C162.259 48.5811 161.056 47.0794 160.083 45.2395C159.11 43.3721 158.623 41.1128 158.623 38.4611C158.623 36.9998 158.879 35.4171 159.393 33.7122C159.907 32.0078 160.732 30.4384 161.867 29.0041C163.03 27.5432 164.531 26.3254 166.369 25.3512C168.235 24.377 170.493 23.8899 173.143 23.8899H192.165V33.9558H173.143C171.71 33.9558 170.601 34.4022 169.817 35.2953C169.033 36.1611 168.641 37.2433 168.641 38.5422C168.641 39.9224 169.087 41.0047 169.979 41.7894C170.899 42.5471 171.98 42.9257 173.224 42.9257H192.165C193.598 42.9257 194.707 42.4931 195.491 41.6269C196.275 40.7612 196.667 39.6789 196.667 38.3801V23.6467C196.667 22.2665 196.235 21.1709 195.369 20.3588C194.531 19.5471 193.463 19.1414 192.165 19.1414H169.006V9.11623H192.165C193.625 9.11623 195.193 9.37308 196.87 9.8872C198.573 10.4013 200.141 11.24 201.575 12.4038C203.035 13.5401 204.251 15.0417 205.225 16.9091C206.199 18.7491 206.685 20.9947 206.685 23.6467V38.4611ZM253.954 19.6688H230.227C228.794 19.6688 227.712 20.0342 226.983 20.7648C226.252 21.4685 225.887 22.51 225.887 23.8899V52.9916H215.342V23.8899C215.342 22.0769 215.572 20.4535 216.031 19.0196C216.491 17.5853 217.1 16.3272 217.857 15.245C218.641 14.1353 219.533 13.2018 220.533 12.4441C221.534 11.6594 222.575 11.0235 223.657 10.5368C224.765 10.0497 225.874 9.69768 226.983 9.48114C228.118 9.238 229.173 9.11623 230.146 9.11623H253.954V19.6688ZM299.966 52.9916H289.42V23.8899C289.42 22.51 289.056 21.4685 288.325 20.7648C287.595 20.0342 286.514 19.6688 285.081 19.6688H271.372V52.9916H260.826V14.3518C260.826 13.6211 260.961 12.9449 261.232 12.3223C261.502 11.6731 261.881 11.1183 262.368 10.6586C262.854 10.1715 263.422 9.79244 264.071 9.52187C264.72 9.2513 265.41 9.11623 266.14 9.11623H285.162C286.622 9.11623 288.19 9.37308 289.867 9.8872C291.543 10.4013 293.138 11.2267 294.652 12.3631V9.11623H308.929C309.93 9.11623 310.984 9.238 312.093 9.48114C313.202 9.69768 314.296 10.0497 315.378 10.5368C316.487 11.0235 317.541 11.6594 318.542 12.4441C319.542 13.2018 320.421 14.1353 321.178 15.245C321.935 16.3272 322.544 17.5853 323.003 19.0196C323.463 20.4535 323.693 22.0769 323.693 23.8899V52.9916H313.147V23.8899C313.147 22.51 312.796 21.4685 312.093 20.7648C311.417 20.0342 310.362 19.6688 308.929 19.6688H299.439C299.79 20.9676 299.966 22.3749 299.966 23.8899V52.9916ZM381.02 38.1768C381.02 39.9898 380.791 41.6269 380.331 43.0882C379.871 44.5221 379.263 45.7939 378.506 46.9036C377.749 47.9859 376.87 48.9194 375.869 49.7041C374.869 50.4617 373.814 51.0839 372.706 51.571C371.624 52.0581 370.515 52.4235 369.38 52.667C368.271 52.8836 367.217 52.9916 366.216 52.9916H347.194C345.734 52.9916 344.139 52.7348 342.408 52.2207C340.678 51.7065 339.069 50.8674 337.582 49.7041C336.122 48.5133 334.891 46.9847 333.891 45.1177C332.917 43.2233 332.431 40.91 332.431 38.1768V23.8899C332.431 21.1842 332.917 18.8979 333.891 17.0309C334.891 15.1365 336.122 13.6078 337.582 12.4441C339.069 11.2538 340.678 10.4013 342.408 9.8872C344.139 9.37308 345.734 9.11623 347.194 9.11623H366.216C368.92 9.11623 371.219 9.60292 373.111 10.5771C375.004 11.5513 376.532 12.7824 377.694 14.2708C378.857 15.7321 379.695 17.3285 380.209 19.0599C380.75 20.7918 381.02 22.402 381.02 23.8899V38.1768ZM370.475 23.9713C370.475 22.51 370.11 21.4277 369.38 20.7241C368.65 20.0209 367.595 19.6688 366.216 19.6688H347.275C345.869 19.6688 344.801 20.0342 344.071 20.7648C343.341 21.4685 342.976 22.51 342.976 23.8899V38.1768C342.976 39.5571 343.341 40.6124 344.071 41.343C344.801 42.0733 345.869 42.4386 347.275 42.4386H366.216C367.649 42.4386 368.717 42.0733 369.421 41.343C370.123 40.6124 370.475 39.5571 370.475 38.1768V23.9713ZM438.511 52.9916H427.966V28.6388C427.966 27.2589 427.721 26.0278 427.235 24.9456C426.774 23.8358 426.138 22.8891 425.329 22.1044C424.519 21.3197 423.559 20.7241 422.45 20.3184C421.366 19.8854 420.191 19.6688 418.92 19.6688H400.467V52.9916H389.921V14.3518C389.921 13.6211 390.056 12.9449 390.326 12.3223C390.597 11.6731 390.975 11.1183 391.462 10.6586C391.949 10.1715 392.516 9.79244 393.165 9.52187C393.814 9.2513 394.504 9.11623 395.234 9.11623H419.003C420.328 9.11623 421.719 9.26501 423.177 9.5626C424.664 9.86018 426.126 10.3473 427.559 11.0235C429.021 11.6731 430.4 12.5118 431.696 13.5401C433.02 14.5413 434.183 15.7724 435.184 17.2337C436.21 18.6676 437.024 20.3317 437.618 22.2261C438.212 24.1201 438.511 26.2577 438.511 28.6388V52.9916ZM496 57.2127C496 59.0256 495.772 60.649 495.311 62.0833C494.85 63.5447 494.243 64.8165 493.487 65.8987C492.727 67.008 491.851 67.9415 490.85 68.6992C489.849 69.4839 488.794 70.1198 487.685 70.6069C486.605 71.094 485.509 71.4456 484.4 71.6621C483.291 71.9057 482.236 72.0275 481.235 72.0275H462.213V61.4745H481.235C482.643 61.4745 483.698 61.1091 484.4 60.3785C485.102 59.6482 485.455 58.593 485.455 57.2127V9.11623H496V57.2127ZM481.235 52.9916H462.213C460.702 52.9916 459.078 52.7348 457.346 52.2207C455.643 51.7065 454.048 50.8674 452.561 49.7041C451.074 48.5133 449.845 46.9847 448.869 45.1177C447.897 43.2233 447.411 40.91 447.411 38.1768V9.11623H457.956V38.1768C457.956 39.5571 458.322 40.6124 459.053 41.343C459.78 42.0733 460.864 42.4386 462.297 42.4386H481.235V52.9916Z" fill="#F8C630"/>
<path d="M209.362 139.111C209.362 139.869 209.227 140.572 208.956 141.222C208.686 141.871 208.308 142.439 207.821 142.927C207.361 143.386 206.807 143.752 206.158 144.022C205.536 144.293 204.86 144.428 204.13 144.428H180.281C178.983 144.428 177.591 144.279 176.104 143.982C174.644 143.684 173.197 143.21 171.764 142.561C170.331 141.885 168.938 141.046 167.586 140.045C166.261 139.016 165.099 137.785 164.098 136.351C163.098 134.89 162.286 133.212 161.665 131.318C161.07 129.424 160.773 127.287 160.773 124.905V100.553H171.318V124.905C171.318 126.286 171.548 127.53 172.007 128.64C172.494 129.722 173.143 130.655 173.954 131.44C174.765 132.225 175.712 132.834 176.793 133.267C177.902 133.672 179.092 133.875 180.363 133.875H198.817V100.553H209.362V139.111ZM267.605 129.613C267.605 130.615 267.483 131.67 267.239 132.78C267.023 133.889 266.672 134.998 266.185 136.107C265.698 137.19 265.063 138.232 264.279 139.233C263.521 140.234 262.589 141.127 261.48 141.912C260.399 142.669 259.141 143.278 257.708 143.738C256.275 144.198 254.653 144.428 252.841 144.428H233.819C232.819 144.428 231.764 144.32 230.655 144.104C229.547 143.86 228.438 143.495 227.329 143.008C226.248 142.52 225.207 141.898 224.207 141.141C223.206 140.356 222.314 139.422 221.53 138.34C220.773 137.23 220.164 135.959 219.704 134.525C219.245 133.063 219.015 131.426 219.015 129.613V82.004H229.56V129.613C229.56 130.912 229.966 131.954 230.777 132.739C231.588 133.497 232.602 133.875 233.819 133.875H252.841C254.166 133.875 255.193 133.483 255.924 132.698C256.681 131.913 257.059 130.885 257.059 129.613V115.326C257.059 114.001 256.667 112.972 255.883 112.242C255.099 111.484 254.085 111.105 252.841 111.105H233.819V100.553H252.841C253.842 100.553 254.896 100.675 256.005 100.918C257.113 101.134 258.208 101.486 259.29 101.973C260.399 102.46 261.453 103.096 262.454 103.881C263.454 104.638 264.333 105.572 265.09 106.682C265.847 107.764 266.455 109.022 266.915 110.456C267.375 111.89 267.605 113.513 267.605 115.326V129.613Z" fill="#F8C630"/>
<path d="M26.996 60.8884H121.794V0H148.79V149H121.794V88.1116H26.996V149H0V0H26.996V60.8884Z" fill="#F8C630"/>
<path d="M479.595 60.8884H115.356V87.9038H479.595V60.8884Z" fill="#F8C630"/>
<path d="M480.114 87.9038C488.888 87.9038 496 81.8562 496 74.3961C496 66.936 488.888 60.8884 480.114 60.8884C471.34 60.8884 464.228 66.936 464.228 74.3961C464.228 81.8562 471.34 87.9038 480.114 87.9038Z" fill="#F8C630"/>
<path d="M496 55.901H490.185V75.0195H496V55.901Z" fill="#F8C630"/>
<path d="M484.994 60.8884H477.518V62.1353H484.994V60.8884Z" fill="#F8C630"/>
</svg>
