<svg width="1205" height="369" viewBox="0 0 1205 369" fill="none" xmlns="http://www.w3.org/2000/svg">
<g filter="url(#filter0_d_13_50)">
<path d="M497.648 92.539C497.648 96.055 497.03 99.863 495.793 103.965C494.556 108.001 492.538 111.777 489.738 115.293C487.004 118.743 483.391 121.641 478.898 123.984C474.471 126.328 469.068 127.5 462.688 127.5H416.887C413.371 127.5 409.562 126.882 405.461 125.645C401.424 124.408 397.648 122.422 394.133 119.688C390.682 116.888 387.785 113.275 385.441 108.848C383.098 104.355 381.926 98.919 381.926 92.539C381.926 89.023 382.544 85.215 383.781 81.113C385.018 77.012 387.004 73.236 389.738 69.785C392.538 66.27 396.151 63.34 400.578 60.996C405.07 58.652 410.507 57.48 416.887 57.48H462.688V81.699H416.887C413.436 81.699 410.767 82.773 408.879 84.922C406.991 87.005 406.047 89.609 406.047 92.734C406.047 96.055 407.121 98.659 409.27 100.547C411.483 102.37 414.087 103.281 417.082 103.281H462.688C466.138 103.281 468.807 102.24 470.695 100.156C472.583 98.073 473.527 95.469 473.527 92.344V56.895C473.527 53.574 472.486 50.938 470.402 48.984C468.384 47.031 465.812 46.055 462.688 46.055H406.926V21.934H462.688C466.203 21.934 469.979 22.552 474.016 23.789C478.117 25.026 481.893 27.044 485.344 29.844C488.859 32.578 491.789 36.191 494.133 40.684C496.477 45.111 497.648 50.514 497.648 56.895V92.539ZM611.461 47.324H554.332C550.882 47.324 548.277 48.203 546.52 49.961C544.762 51.654 543.883 54.16 543.883 57.48V127.5H518.492V57.48C518.492 53.118 519.046 49.212 520.152 45.762C521.259 42.311 522.724 39.284 524.547 36.68C526.435 34.01 528.583 31.764 530.992 29.941C533.401 28.053 535.908 26.523 538.512 25.352C541.181 24.18 543.85 23.333 546.52 22.812C549.254 22.227 551.793 21.934 554.137 21.934H611.461V47.324ZM722.246 127.5H696.855V57.48C696.855 54.16 695.977 51.654 694.219 49.961C692.461 48.203 689.857 47.324 686.406 47.324H653.398V127.5H628.008V34.531C628.008 32.773 628.333 31.146 628.984 29.648C629.635 28.086 630.547 26.751 631.719 25.645C632.891 24.473 634.258 23.561 635.82 22.91C637.383 22.259 639.043 21.934 640.801 21.934H686.602C690.117 21.934 693.893 22.552 697.93 23.789C701.966 25.026 705.807 27.012 709.453 29.746V21.934H743.828C746.237 21.934 748.776 22.227 751.445 22.812C754.115 23.333 756.751 24.18 759.355 25.352C762.025 26.523 764.564 28.053 766.973 29.941C769.382 31.764 771.497 34.01 773.32 36.68C775.143 39.284 776.608 42.311 777.715 45.762C778.822 49.212 779.375 53.118 779.375 57.48V127.5H753.984V57.48C753.984 54.16 753.138 51.654 751.445 49.961C749.818 48.203 747.279 47.324 743.828 47.324H720.977C721.823 50.449 722.246 53.835 722.246 57.48V127.5ZM917.406 91.855C917.406 96.217 916.853 100.156 915.746 103.672C914.639 107.122 913.174 110.182 911.352 112.852C909.529 115.456 907.413 117.702 905.004 119.59C902.595 121.413 900.056 122.91 897.387 124.082C894.783 125.254 892.113 126.133 889.379 126.719C886.71 127.24 884.171 127.5 881.762 127.5H835.961C832.445 127.5 828.604 126.882 824.438 125.645C820.271 124.408 816.397 122.389 812.816 119.59C809.301 116.725 806.339 113.047 803.93 108.555C801.586 103.997 800.414 98.431 800.414 91.855V57.48C800.414 50.97 801.586 45.469 803.93 40.977C806.339 36.419 809.301 32.741 812.816 29.941C816.397 27.077 820.271 25.026 824.438 23.789C828.604 22.552 832.445 21.934 835.961 21.934H881.762C888.272 21.934 893.806 23.105 898.363 25.449C902.921 27.793 906.599 30.755 909.398 34.336C912.198 37.852 914.216 41.693 915.453 45.859C916.755 50.026 917.406 53.9 917.406 57.48V91.855ZM892.016 57.676C892.016 54.16 891.137 51.556 889.379 49.863C887.621 48.171 885.082 47.324 881.762 47.324H836.156C832.771 47.324 830.199 48.203 828.441 49.961C826.684 51.654 825.805 54.16 825.805 57.48V91.855C825.805 95.176 826.684 97.715 828.441 99.473C830.199 101.23 832.771 102.109 836.156 102.109H881.762C885.212 102.109 887.784 101.23 889.477 99.473C891.169 97.715 892.016 95.176 892.016 91.855V57.676ZM1055.83 127.5H1030.44V68.906C1030.44 65.586 1029.85 62.624 1028.68 60.02C1027.57 57.35 1026.04 55.072 1024.09 53.184C1022.14 51.296 1019.83 49.863 1017.16 48.887C1014.55 47.845 1011.72 47.324 1008.66 47.324H964.23V127.5H938.836V34.531C938.836 32.773 939.161 31.146 939.812 29.648C940.464 28.086 941.375 26.751 942.547 25.645C943.719 24.473 945.086 23.561 946.648 22.91C948.211 22.259 949.871 21.934 951.629 21.934H1008.86C1012.05 21.934 1015.4 22.292 1018.91 23.008C1022.49 23.724 1026.01 24.896 1029.46 26.523C1032.98 28.086 1036.3 30.104 1039.42 32.578C1042.61 34.987 1045.41 37.949 1047.82 41.465C1050.29 44.915 1052.25 48.919 1053.68 53.477C1055.11 58.034 1055.83 63.177 1055.83 68.906V127.5ZM1194.25 137.656C1194.25 142.018 1193.7 145.924 1192.59 149.375C1191.48 152.891 1190.02 155.951 1188.2 158.555C1186.37 161.224 1184.26 163.47 1181.85 165.293C1179.44 167.181 1176.9 168.711 1174.23 169.883C1171.63 171.055 1168.99 171.901 1166.32 172.422C1163.65 173.008 1161.11 173.301 1158.7 173.301H1112.9V147.91H1158.7C1162.09 147.91 1164.63 147.031 1166.32 145.273C1168.01 143.516 1168.86 140.977 1168.86 137.656V21.934H1194.25V137.656ZM1158.7 127.5H1112.9C1109.26 127.5 1105.35 126.882 1101.18 125.645C1097.08 124.408 1093.24 122.389 1089.66 119.59C1086.08 116.725 1083.12 113.047 1080.77 108.555C1078.43 103.997 1077.26 98.431 1077.26 91.855V21.934H1102.65V91.855C1102.65 95.176 1103.53 97.715 1105.29 99.473C1107.04 101.23 1109.65 102.109 1113.1 102.109H1158.7V127.5Z" fill="#F8C630"/>
<path d="M504.094 334.707C504.094 336.53 503.768 338.223 503.117 339.785C502.466 341.348 501.555 342.715 500.383 343.887C499.276 344.993 497.941 345.872 496.379 346.523C494.882 347.174 493.254 347.5 491.496 347.5H434.074C430.949 347.5 427.596 347.142 424.016 346.426C420.5 345.71 417.017 344.57 413.566 343.008C410.116 341.38 406.763 339.362 403.508 336.953C400.318 334.479 397.518 331.517 395.109 328.066C392.701 324.551 390.747 320.514 389.25 315.957C387.818 311.4 387.102 306.257 387.102 300.527V241.934H412.492V300.527C412.492 303.848 413.046 306.842 414.152 309.512C415.324 312.116 416.887 314.362 418.84 316.25C420.793 318.138 423.072 319.603 425.676 320.645C428.345 321.621 431.21 322.109 434.27 322.109H478.703V241.934H504.094V334.707ZM644.328 311.855C644.328 314.264 644.035 316.803 643.449 319.473C642.928 322.142 642.082 324.811 640.91 327.48C639.738 330.085 638.208 332.591 636.32 335C634.497 337.409 632.251 339.557 629.582 341.445C626.978 343.268 623.951 344.733 620.5 345.84C617.049 346.947 613.143 347.5 608.781 347.5H562.98C560.572 347.5 558.033 347.24 555.363 346.719C552.694 346.133 550.025 345.254 547.355 344.082C544.751 342.91 542.245 341.413 539.836 339.59C537.427 337.702 535.279 335.456 533.391 332.852C531.568 330.182 530.103 327.122 528.996 323.672C527.889 320.156 527.336 316.217 527.336 311.855V197.305H552.727V311.855C552.727 314.98 553.703 317.487 555.656 319.375C557.609 321.198 560.051 322.109 562.98 322.109H608.781C611.971 322.109 614.445 321.165 616.203 319.277C618.026 317.389 618.938 314.915 618.938 311.855V277.48C618.938 274.29 617.993 271.816 616.105 270.059C614.217 268.236 611.776 267.324 608.781 267.324H562.98V241.934H608.781C611.19 241.934 613.729 242.227 616.398 242.812C619.068 243.333 621.704 244.18 624.309 245.352C626.978 246.523 629.517 248.053 631.926 249.941C634.335 251.764 636.451 254.01 638.273 256.68C640.096 259.284 641.561 262.311 642.668 265.762C643.775 269.212 644.328 273.118 644.328 277.48V311.855Z" fill="#F8C630"/>
<path d="M65 146.5H293.25V0H358.25V358.5H293.25V212H65V358.5H0V0H65V146.5Z" fill="#F8C630"/>
<path d="M1154.75 146.5H277.75V211.5H1154.75V146.5Z" fill="#F8C630"/>
<path d="M1156 211.5C1177.12 211.5 1194.25 196.949 1194.25 179C1194.25 161.051 1177.12 146.5 1156 146.5C1134.88 146.5 1117.75 161.051 1117.75 179C1117.75 196.949 1134.88 211.5 1156 211.5Z" fill="#F8C630"/>
<path d="M1194.25 134.5H1180.25V180.5H1194.25V134.5Z" fill="#F8C630"/>
<path d="M1167.75 146.5H1149.75V149.5H1167.75V146.5Z" fill="#F8C630"/>
</g>
<defs>
<filter id="filter0_d_13_50" x="0" y="0" width="1204.25" height="368.5" filterUnits="userSpaceOnUse" color-interpolation-filters="sRGB">
<feFlood flood-opacity="0" result="BackgroundImageFix"/>
<feColorMatrix in="SourceAlpha" type="matrix" values="0 0 0 0 0 0 0 0 0 0 0 0 0 0 0 0 0 0 127 0" result="hardAlpha"/>
<feOffset dx="10" dy="10"/>
<feComposite in2="hardAlpha" operator="out"/>
<feColorMatrix type="matrix" values="0 0 0 0 0.898039 0 0 0 0 0.309804 0 0 0 0 0.427451 0 0 0 1 0"/>
<feBlend mode="normal" in2="BackgroundImageFix" result="effect1_dropShadow_13_50"/>
<feBlend mode="normal" in="SourceGraphic" in2="effect1_dropShadow_13_50" result="shape"/>
</filter>
</defs>
</svg>
